<svg xmlns="http://www.w3.org/2000/svg" viewBox="0 0 1331.6 681.3"><title>INFOLKS LOGOS</title><path d="M687.4,348.2c-2.5-10.6-5.2-21.2-8.2-31.7s-6.2-20.9-9.9-31.1a249.2,249.2,0,0,0-12.5-30.2,94.8,94.8,0,0,0-8.3-14.1c-3.2-4.4-6.9-8.6-12-10.8,5,2.3,8.6,6.6,11.7,11a98.7,98.7,0,0,1,7.9,14.2,254.8,254.8,0,0,1,11.8,30.4c3.3,10.3,6.3,20.7,9,31.3s5.3,21,7.5,31.6Z" fill="#283a97"/><path d="M693.8,348.7c-.7-15.5-1-31-.6-46.4.2-7.8.6-15.5,1.2-23.2s1.7-15.4,3.9-22.9a111.1,111.1,0,0,0-4.6,22.8c-1,7.7-1.6,15.5-2.1,23.2-.8,15.5-1.1,31-1,46.6Z" fill="#283a97"/><path d="M697.9,351.1a8.4,8.4,0,0,1-7.3,9.6,8.6,8.6,0,0,1-9.7-7.2,8.7,8.7,0,0,1,7.3-9.7A8.6,8.6,0,0,1,697.9,351.1Z" fill="#283a97"/><path d="M698.8,429.6c-17-36.3-13.6-63.4-12.6-68.7a6.5,6.5,0,0,1,.2-1l8.3-1.3.3.7C697,363.8,706.9,389,698.8,429.6Z" fill="#283a97"/><path d="M705,348.3a6.1,6.1,0,0,1,0-2.7c4.4-21.3,54.9-255.7,130.1-147.6,78.8,113.2,59.3,131.3,59.3,131.3s-39,44.2-183.3,47.5c-.4,0-.4.1-.7-.1l-.6-6.2-1.4-8.5-1.8-8.3Z" fill="#283a97"/><path d="M711,387.9s211-24.1,146.5,58.9-82.1,73.1-82.1,73.1-32.8,7.3-68.1-97.5l1.8-9.3,1.1-8.4c0-.3.1-.5.1-.7Z" fill="#283a97"/><path d="M689.4,427.6C674,545.4,635.2,559.4,635.2,559.4s-17.3,14.3-107.9-60,144-100.1,151.5-101h.2l1.8,6.6,2.6,7.7,2.8,7.3,3.2,7.6Z" fill="#283a97"/><path d="M677.1,389.6h-.2C499.7,416,440.6,358.8,440.6,358.8s-27.9-21.1,42-191.9c69.3-169.1,191.7,181,194.1,188h.1l-1.1,5.4-.5,8.1.4,10.7Z" fill="#283a97"/><path d="M675.6,379.2l.6,5.2c.3,1.6.5,3.3.8,4.9-.1,0-.2-.2-.3-.4-.5-3.3-1-6.5-1.3-9.8s-.3-6.6-.4-9.8a59.2,59.2,0,0,1,.5-8.4,28.9,28.9,0,0,1,.4-2.9,15.3,15.3,0,0,1,.7-2.9,1.8,1.8,0,0,0-.2,1c-.1.4-.1.8-.2,1.2l-.3,2.3c-.2,1.6-.4,3.3-.5,5A101.7,101.7,0,0,0,675.6,379.2Z" fill="#283a97"/><path d="M689.4,427.6h-.2l-.2-.3-.3-.8-.5-1.1a24.4,24.4,0,0,1-1-2.4c-.7-1.5-1.3-3-1.9-4.5l-1.7-4.4c-.5-1.4-1-2.8-1.4-4.3s-.9-2.7-1.4-4.1-.7-2.6-1.1-4l-.9-3.3h.2l1.8,6.6,2.6,7.7,2.8,7.3Z" fill="#283a97"/></svg>